inDegrees=yes
name=ik_S54_A13_T02
DataType=double
version=3
OpenSimVersion=4.3-2021-08-27-4bc7ad9
endheader
time	pelvis_tilt	pelvis_list	pelvis_rotation	pelvis_tx	pelvis_ty	pelvis_tz	hip_flexion_r	hip_adduction_r	hip_rotation_r	knee_angle_r	knee_angle_r_beta	ankle_angle_r	subtalar_angle_r	mtp_angle_r	hip_flexion_l	hip_adduction_l	hip_rotation_l	knee_angle_l	knee_angle_l_beta	ankle_angle_l	subtalar_angle_l	mtp_angle_l	lumbar_extension	lumbar_bending	lumbar_rotation	arm_flex_r	arm_add_r	arm_rot_r	elbow_flex_r	pro_sup_r	wrist_flex_r	wrist_dev_r	arm_flex_l	arm_add_l	arm_rot_l	elbow_flex_l	pro_sup_l	wrist_flex_l	wrist_dev_l
2.900000000000002	1.935446825795896	2.635666923253762	15.33855308747812	0	0.9399999999999999	0	21.87957425578618	-7.808202804699133	-6.690498473618333	26.60539649830425	0.4643517676939791	0	0	0	21.87957425578618	-7.808202804699133	-6.690498473618333	26.60539649830425	0.4643517676939791	0	0	0	3.328500710337387	0.7812416418476539	5.607825090725231	76.01304305746568	-32.08218053074462	-2.267737335047754	104.1409721259173	44.57898680760081	0	0	85.69203901680245	-44.17735402255611	54.26196449216366	29.15171290667661	97.08433619681922	0	0
2.920000000000002	1.932282615716967	2.626496590108436	15.28925617486872	0	0.9399999999999999	0	21.88656759986056	-7.810293077653861	-6.692531235371853	26.61185665895331	0.464464518767513	0	0	0	21.88656759986056	-7.810293077653861	-6.692531235371853	26.61185665895331	0.464464518767513	0	0	0	3.320014811239672	0.7781132447601241	5.667900778924313	75.90233002470427	-32.33409970710337	-2.852616132435819	103.9656094674288	44.39478481209803	0	0	85.80369080113454	-44.18685574304042	54.31639664747033	29.170578809862	98.25545495686974	0	0
2.940000000000002	1.907296643512371	2.634588872410038	15.26071170768211	0	0.9399999999999999	0	21.90428530294127	-7.815584989101141	-6.697679630567115	26.62822461794265	0.4647501935437083	0	0	0	21.90428530294127	-7.815584989101141	-6.697679630567115	26.62822461794265	0.4647501935437083	0	0	0	3.295112127080138	0.7972272318985192	5.726373358474705	75.84674338941949	-32.44357347790452	-3.273122055178745	103.7966920388811	44.16961844785719	0	0	85.8763844074565	-44.08612612944276	53.74105405704554	29.06838438179955	100.3316850608718	0	0
2.960000000000002	1.896628774785969	2.640588894961471	15.26710980923127	0	0.9399999999999999	0	21.91514836872178	-7.818842773413206	-6.700844689769997	26.638211721905	0.4649245013905903	0	0	0	21.91514836872178	-7.818842773413206	-6.700844689769997	26.638211721905	0.4649245013905903	0	0	0	3.285426062765927	0.8074045879019971	5.740660494120464	75.79850977361292	-32.50693813403452	-3.625102599340257	103.4107254364282	44.02806158235808	0	0	85.94193826525155	-44.10855686345996	53.94487091114071	29.03874549768308	100.9834600754527	0	0
2.980000000000002	1.888050053474099	2.643903862247714	15.26702893419396	0	0.9399999999999999	0	21.92782030934426	-7.82264488815601	-6.70453842945562	26.64984801633354	0.4651275930410997	0	0	0	21.92782030934426	-7.82264488815601	-6.70453842945562	26.64984801633354	0.4651275930410997	0	0	0	3.276730803368177	0.8152241712383789	5.764573738172702	75.68707122981684	-32.61597858492448	-4.066300067486176	103.0751049049141	43.94079266990015	0	0	85.94000382147458	-44.16745276630967	54.30505301817063	29.00724773062177	100.6041452698755	0	0
3.000000000000002	1.878072144794276	2.651914432257939	15.23924188642086	0	0.9399999999999999	0	21.94000711269777	-7.826288883087671	-6.70808406476448	26.66106360146638	0.4653233419292057	0	0	0	21.94000711269777	-7.826288883087671	-6.70808406476448	26.66106360146638	0.4653233419292057	0	0	0	3.266700007563033	0.8301573799061311	5.822953091227673	75.49254668689274	-32.87020311289221	-4.690884015374674	102.8640602151239	43.73216519014469	0	0	85.88299443746219	-44.26535034867917	54.43413450587165	29.08110919754811	100.041677472304	0	0
3.020000000000002	1.870610347754425	2.6517553357037	15.20529333955023	0	0.9399999999999999	0	21.95087714397198	-7.829524786129541	-6.711238702009263	26.67109931968747	0.465498498254966	0	0	0	21.95087714397198	-7.829524786129541	-6.711238702009263	26.67109931968747	0.465498498254966	0	0	0	3.255498229820931	0.8381098431699397	5.911983956936704	75.31909732351764	-33.16731597767296	-5.471976713941413	102.6283216946643	43.26608515964503	0	0	85.83473948852033	-44.34709801207638	54.30255533336657	29.28350204191224	99.38835581981921	0	0
3.040000000000002	1.85819789212244	2.647567694025754	15.16032842380981	0	0.9399999999999999	0	21.96292812762936	-7.833109484417919	-6.714735008563794	26.68222432432717	0.4656926662152284	0	0	0	21.96292812762936	-7.833109484417919	-6.714735008563794	26.68222432432717	0.4656926662152284	0	0	0	3.240084408155876	0.8407060932168615	5.962762191594195	75.28942368928767	-33.38386686044588	-6.215272370535408	102.3470941479991	42.3718526790212	0	0	85.86413683831607	-44.50160805631246	54.07659240046248	29.66969549040852	98.50392947264794	0	0
3.060000000000002	1.83894268499229	2.659584997158334	15.21219581759005	0	0.9399999999999999	0	21.97292295074666	-7.836058338975354	-6.717620990064999	26.69151204399146	0.4658547675033725	0	0	0	21.97292295074666	-7.836058338975354	-6.717620990064999	26.69151204399146	0.4658547675033725	0	0	0	3.223104580861963	0.8599786844757401	5.975487422208364	75.39576831659899	-33.53714411413537	-6.693530211265049	101.9335798924995	41.14618160963651	0	0	85.87724108317843	-44.53778352988672	53.79783812477488	30.17599521081282	97.26693794941363	0	0
3.080000000000002	1.822643283364823	2.659839692645094	15.31998605309808	0	0.9399999999999999	0	21.98549916317019	-7.839753885989455	-6.721244130921425	26.7032315160917	0.4660593108781173	0	0	0	21.98549916317019	-7.839753885989455	-6.721244130921425	26.7032315160917	0.4660593108781173	0	0	0	3.210580961310337	0.8605420111195156	5.900586954103757	75.57211883551805	-33.61840924830558	-6.956775675649079	101.6173368640681	39.49012226399494	0	0	85.83908929005678	-44.56907146448375	53.55194245007777	30.70640928395793	95.54598785342398	0	0
3.100000000000002	1.808976960612434	2.670367870504303	15.53044001540735	0	0.9399999999999999	0	21.99616451735789	-7.842873846899995	-6.724309002747214	26.71320153340806	0.4662333205067686	0	0	0	21.99616451735789	-7.842873846899995	-6.724309002747214	26.71320153340806	0.4662333205067686	0	0	0	3.208420134616212	0.8648493427127174	5.743502874865916	75.7191937637954	-33.54584580543447	-6.941433718816917	101.2025887106244	37.87465640822342	0	0	85.69367132328418	-44.48166223879376	53.32510900609399	31.21112611925133	93.51978619545061	0	0
3.120000000000002	1.78830817904276	2.666432698873333	15.7057758611156	0	0.9399999999999999	0	22.00881924736046	-7.846607803610446	-6.727965110027048	26.72493011371783	0.4664380228497588	0	0	0	22.00881924736046	-7.846607803610446	-6.727965110027048	26.72493011371783	0.4664380228497588	0	0	0	3.194243327222918	0.8580875213052085	5.614564294401114	75.79560026573257	-33.36130419534511	-6.706445800285083	100.9471526620376	36.84560976756844	0	0	85.59106486504714	-44.42763317348513	53.28426449896887	31.79408592435221	91.28914741919421	0	0
3.140000000000002	1.789990010963076	2.662603945041926	15.77293713583852	0	0.9399999999999999	0	22.02154059348808	-7.850374347948789	-6.731648816499444	26.73667250830968	0.4666429662974549	0	0	0	22.02154059348808	-7.850374347948789	-6.731648816499444	26.73667250830968	0.4666429662974549	0	0	0	3.19768915348113	0.8497767376530679	5.550385974297657	75.70058220252821	-33.03536196260024	-6.197230167175472	100.6581276569623	36.80135998600717	0	0	85.40906530873932	-44.40056863385597	53.25444737467722	32.43264756077656	89.00201520193585	0	0
3.160000000000002	1.785100938609653	2.662311031456813	15.6421190213621	0	0.9399999999999999	0	22.03580489164442	-7.854579289085348	-6.735769301648515	26.74987765863438	0.4668734396488416	0	0	0	22.03580489164442	-7.854579289085348	-6.735769301648515	26.74987765863438	0.4668734396488416	0	0	0	3.185960650941343	0.8585254955195347	5.675427584983864	75.7183070510108	-33.03011561094733	-6.105702303044228	100.5752371401829	36.84443936920101	0	0	85.29588641533446	-44.38817406613088	53.13689976653382	33.18590775894474	86.81737693486636	0	0
3.180000000000002	1.79012668225076	2.666076737161491	15.68961594060162	0	0.9399999999999999	0	22.04661082549548	-7.857774592267988	-6.738897117934794	26.75984511650454	0.4670474046067299	0	0	0	22.04661082549548	-7.857774592267988	-6.738897117934794	26.75984511650454	0.4670474046067299	0	0	0	3.193382101773905	0.8591092843811284	5.644873768089754	75.54454921943044	-32.67115495858728	-5.341073249108397	100.3461747632458	37.57872525389063	0	0	85.20957920811168	-44.36955570423768	52.91979216440158	34.02060807460924	84.70398889663825	0	0
3.200000000000002	1.761996072774977	2.671887934713031	15.61164006237098	0	0.9399999999999999	0	22.05850564278402	-7.86127852889103	-6.742332848566663	26.77084508624662	0.4672393902963489	0	0	0	22.05850564278402	-7.86127852889103	-6.742332848566663	26.77084508624662	0.4672393902963489	0	0	0	3.164650051897805	0.8765510438485035	5.700615181677069	75.63216146656437	-32.64687507224384	-4.931032208272572	100.0337294313789	37.32571126228913	0	0	85.23819257627818	-44.4190476842965	52.68698330377632	35.03746933743714	82.53911929836184	0	0
3.220000000000002	1.738850276721805	2.669442606963168	15.55003369650158	0	0.9399999999999999	0	22.07172815186697	-7.865163925076179	-6.74614701162292	26.78309008219618	0.4674531057925621	0	0	0	22.07172815186697	-7.865163925076179	-6.74614701162292	26.78309008219618	0.4674531057925621	0	0	0	3.137782264177807	0.8853705769834346	5.772254679783247	75.71161350660635	-32.6574964119211	-4.604734991910369	99.87922133535312	36.33789604121384	0	0	85.20470740042178	-44.31953652825189	52.49960176009834	36.03757443389947	80.23589740520609	0	0
3.240000000000002	1.725821769318424	2.67041217704999	15.40865027034481	0	0.9399999999999999	0	22.08724367448422	-7.869722652665014	-6.750623341430618	26.79744418921828	0.4677036322212813	0	0	0	22.08724367448422	-7.869722652665014	-6.750623341430618	26.79744418921828	0.4677036322212813	0	0	0	3.117155559076574	0.8999530396422101	5.923184004294653	75.72668055523016	-32.68721684107901	-4.448314560238361	99.83955180751607	35.60410800659256	0	0	85.14412668327395	-44.19510376863121	52.36149696289446	37.06841413345744	77.72720970597562	0	0
3.260000000000002	1.70884747101809	2.657634996186483	15.78247608290344	0	0.9399999999999999	0	22.34663624065758	-7.924118629137443	-6.812509122215676	27.0991970528766	0.4729702132194406	0	0	0	22.34663624065758	-7.924118629137443	-6.812509122215676	27.0991970528766	0.4729702132194406	0	0	0	3.111563846026621	0.875926240839622	5.555232223701679	75.35295038265676	-30.45284706903416	-2.138387393143709	98.21176029670572	36.90206102723074	0	0	85.10247224562626	-44.06358896830112	52.28983313742702	38.09988590836985	75.54841236804343	0	0
3.280000000000002	1.694516733356514	2.646088512484282	15.93943728764024	0	0.9399999999999999	0	22.35714863326754	-7.927185720687729	-6.815535021852555	27.10884743360111	0.4731386441371542	0	0	0	22.35714863326754	-7.927185720687729	-6.815535021852555	27.10884743360111	0.4731386441371542	0	0	0	3.101916546984323	0.8580593171131531	5.388276281018213	75.24926299718641	-29.76757103195258	-1.271341393359919	97.36395349735901	35.21660571976755	0	0	85.19557744133775	-43.99016322538452	52.31973168634796	37.99579809931561	75.58906052242706	0	0
